<mxfile host="65bd71144e">
    <diagram id="o5vDAcfvu2bajPxUxS7H" name="第 1 页">
        <mxGraphModel dx="1828" dy="583" grid="1" gridSize="10" guides="1" tooltips="1" connect="1" arrows="1" fold="1" page="1" pageScale="1" pageWidth="827" pageHeight="1169" math="0" shadow="0">
            <root>
                <mxCell id="0"/>
                <mxCell id="1" parent="0"/>
                <mxCell id="4" value="" style="shape=image;verticalLabelPosition=bottom;labelBackgroundColor=default;verticalAlign=top;aspect=fixed;imageAspect=0;image=data:image/png,iVBORw0KGgoAAAANSUhEUgAAAp4AAAGPCAYAAAD1FNAwAAAAAXNSR0IArs4c6QAAAARnQU1BAACxjwv8YQUAAAAJcEhZcwAADsMAAA7DAcdvqGQAAGCSSURBVHhe7d3fqxzXne99/wu5zl2ufBGcx8F4BtvYTjSEY9mObIQtGZ7kJLFHIrb8IxfCJyg+/oEHWeMZwfGxQTY2NvjYeoyO8kMM0Zg9PDookEAYGHwYJsyQA4HwXIf8BevptWqt6rW+9V0/qru6dvfe74sXe/f6Vauru6o+e1W3dMutX73DAAAAAJtG8AQAAMAsCJ4AAACYBcETAAAAs3DB8+77/5P56v/1l2oDAAAAYAoETwAAAMyC4AkAAIBZEDwBAAAwiw0Hz1Pm7s9umsd/uXTkWa3dNlnOefvnukPe/LIxv/uyuaLVAQfW18xvfnuL+f2bWt2qujHN7xZ++xVzQW0DANtpo8HzjkuLAPfZu+Y2pW5+PlBeek2pix3E4HnUnPvVj82lXz1nfvjksPzcK3HZBjz9FfPnxUVy2ovvpt1jPvq7U+bXz9yj1O2XbZwTqtwfXdO9/69cJ3AC2F0bDJ6vmSNbFd5ag+dB1AXMC9efMxfeuW9Qvtngeav5/eKi++ePv6bUbbO/Mr9475T5xUmtbr9s45zQ4sLHX5poxb87nnbrjzgAWNpc8Hz0XfMQwXNL+OD5zmOLn0+a46J8k8FzZ1dnTj5uvnjvu+ajbyp1+2Ub54RG/vb49VuVujEIngB22z4FTz0Eylvz7rFt8+zl6HOin5u7H1326SVtbpqHXj/Vlft5xHWx5fyWt9g7me0s3Pb651G7Be15tM476z7zw+s2LB51Py+54Hifufed59zvly4fde26x/IW+sKTj5kLfagMwfM+c/xyHDS14Nlt123DiccuBdUw33hFtfUi2a3kfdF73PyNbONCV9Tm7x4yT0X1f/OTRdlP/src+s2HzK+jdsPVwe52tT6WUheLtvnUM9/1j0UfO4e4jXwubn5KeBTzXmVOTmU/dfXdnNw+y7XbWfr+Wn48oat3j2vvFbkvHe31TNtkPwrhbrl/yfzmaaWuGcETwG6bOHjK8Cb0oXJE8NT6ic+NhiAYh9zbXr8sgp6+TZULjHpQ7OZ02dzRl3UfKVhl3mXLAGiDnguY9la5DZyvPBkFwmWojPt37R8z97rHURsbSEW5DKLJWA3b6sixFhoutF04Exf9xQU/vnh3ASkOaz6o9iHPh4mfLPpF7Vy/JFDJfnnDvkr9YnvJrW8XVErb18Po8Pl17WQQappTcT+FwLyYdwhfttyHp2FI3zEhBMav7+C5+Y8rLF67+HWQ+1Z7TQb73wfT9v02RWgkeALYbdu/4qmGzCj4+e30K5xZEwTP3HMS7ZvmXeWDpw+JycpmEgbvcKuYl5Rb6MuAGD+246ZBMoTFNKwG8UpmuqqZtHcrrMs5We5zbaXb7C2BR4S5IA1wYcV0GN6SoNAcsKJVsUK9FpiXc9DH0MPL8PkNVebUtJ9CoBLjHIjg6V8T+UeF3C8hnGrhP7wu6r4cji/3bd0Et9v51yEA7LjdD56F1cnUBMHTlWvhMf0i1aTBM7ml7sOlCJ7pbfVQnw+ibiw3bho8uwCb4efh2rjf/fzCPNwc4m3WP985CGEK10ZZoVSDZ9JOCyK+zAWPUtjzq2LZIKZtT1DDnAyPmbCkKs+pbT/57VX2+U7KhOdBOHShshyy1felNn4fYlv36RrB038zfv3PiALA/iJ4anYteIq2NhwuVzstbQXUjqUEz8GKZ2q5yrnou/h5fPHYjTsIu7UVz5bQ1YUtbZUvCVrqClW+bxpAlRWrzOphLxNyEtoYg9BTmqNQnFPjfhqzvV3j9o98LbvnG7/H6quU8o+DTtcvs//jAFp8P3fBc61/4WGSz4kCwP45MLfa9e3EJgie+3GrvSl4hrIQJtMAOAyeXcg890oaPJNt5Njt2OC5+OnG858ZtQF0EFqLF8k1gqcIfmqYaAmHfnzZphpOasF0YThGCLtxv/YgWJ5T235q2yc7Sgme3T5L94u6mplQgmcfLAvvCUsNvzE+4wkA+xQ8MyFz0X508Fzo+qZBcfjlotCuIfxlV1F9eE3G8F8uigJt67zLRgZPHy7j2+KyLlkFtYHx8pNJ8OzHkAEy5j/Laf9N0G773Tzt4+F2u4tkboWnCwZpgHvqmceTxy4oxBfzEAKiwKqGiWoIWMgFyEqwrAbThbSNDzPiy0/W4Pm5MmXsypxa9lNtDOn02zfMlWs3zIevnlTrm9153PzrmbPmD2eeMT+/U6lvbfPVB8xN1+asuXm/qHPPTfwxIr9E1fTHjm/Tv5/8qqlVuZ1eDbWTrFYSPAHstn0Lnn1g8+yXg1w4WyF4LsvT8eL6TgiOS8v5pfNJaCuzUb3c1v4Ez9BmWK4GzzB+EjyXbZPPdyZjDsNpt105fsd9zrPwZYguMC0NV//CSuFSumKnrFAtDEKADyapfHiU81pusyW8WFFgWXDzc3OQ26w9v6X8nKz6ONVgJBx99ZoLnleufWROK/XN7v+eC4vFUNnSpg+nSvBcSPaPe55iRbt1xbdf4bRsUB++x+Rr4RTfE/w7ngBgbS54YnYuAJZWK/dFedUT2+xFc9EGz08umqNq/SHRGlgL+J+LAKBD8DwoMqugW8F/I5fwuVvCiufFM3r9gTRYlfYrySNWigf8+3+asOhXTvm/2gHsKILnjlv+E0hbGjoDd/Hl3x/cCY9cNB+6W+zXzEuPKPUHXXKrfc3Q6YPitCuU3aqn++eVCKAAdgzBEwAAALMgeAIAAGAWBE8AAADMguAJAACAWUwaPAmwAAAAyCF4zuD08y+p5bGWNppV+01tinls8rmMGXtb9ikAAAcNwXMGLUFm1bCzLSFpqnls6vm0jmvblWh9AABAG4LnhoWwUgstWn0IO7FceSDHmEPY7pjtx3MeQxurRUvfWpt1tg8AAHYweH794R+Z00+dMF9X6np3njDfef5H5lu5//N5RnFYkcGlVKfR2owdY2pym61zWGWuWh9bptHaybKY7F+jjQEAAMp2LHg+aI4vLvrHv6HVLd3zxCIcPPGgWld3v/nWU124qG2nRgsocVnud02otz9byP6bkNtObfuyvmWc2pix0Nb+zMm1j8vHlAEAgLrdCp7fOLW46J8y92h1vbZwqnGrqXal9GG7nfWCZymchLq4TS3M5OrHjDGlVecrTTVOTOvTMo5sk+uzypwAAMBOBc9uJfI7D9+v1C013YrX2FAb+rmAu3rwDMHE/pS0dvJ3SeuXE7fbFG07rWWx1vmOGSfXtmVbtk0rrT8AACjbneDZ9LnNtnBatWbwDGRAKT3OhRlbHtPqZZkkxxhDGycui+ty5bm6KYVtxNvK/d7Cth/bBwAAlO1M8HSf26ytZLrAOMGXirYoeMZCG/szR/aZy6rblvPXaP00WttQ1jqO3Kbs1zoOAAAY2pHgOceXiiJbHjxrZfthqnmsM05p/9TGtfWyjexbGwMAAJTtRPDsvvRT+VKRuxW/flh0Jg6eueASP5Z1WrnWJtdvblPNY9VxQr9c/zHj2rZxe/kYAACsZgeC54a/VKTZwIqnFlxq9YGtC/Xh9xLZfw5TbXfVceJ+2hi1cW19oJWH3+M6AAAwzvYHzzm/VBRs6FZ7qbwWasaMtR+mmscq48g+2hhjx7XtQ5+479hxAADA0tYHz6bPbbqgWPv3PUdoCJ5uXjacFOaWCylaeSnQhDq3PdGu1G9OU81j7Dit7ce0k21rjwEAQJstD55zfqmo21YIHonBLfzl/25U2+5gLC+uj39KWnkYo0T22bSx25TzbaGNUxP6lfrntlHqq7UHAABlWx08Z/9S0T7JBZhdCjbbPNd15ka4BABgOlscPPfhS0UAAADYmO3/chEAAAAOBIInAAAAZkHwBAAAwCwIngAAAJgFwRMAAACzIHgCAABgFgRPAAAAzILgCQAAgFkQPAEAADALguc2O3bDnPzZn8yxp5W6HN/n+z/7wtyl1e+Hb143//HCvzn/+M2o/C8um3/x5f/y8LNpHwAAcOAQPFfx7GXz+C8/N3c/qtRN6SAETx8uk8AptbQBAAA7j+C5im0Onlvm9MP/bP7jry+b00pd7G+f+DfzH0/8vVoHAAAOBoLnKgiezQieAAAg2Ingecelm4ugF2iB7zVzpK9X2jz6rnnIlZ0yd38Wtbv0WjSGJeqtz941t/n6dB5C1K7dp+aYuy0e/NEcORbVu+Bpy94wRz6O2r31aTTGHeaut6K64OMb5vaozX6ZLnieNe/t7Zm9vQ/M82o9AADYdlsePEMQvGzuiMsuRSHPhcqb5qHXT/n6O8xtr3/uwuCRZ9M2SZlbtYweL7hg2RIgp1jx9KuZJ19+oy+7/eU/utDYr3D2n9cclpVWQV0QJXgCAIAts9XBswuQ5YCnh0UfWMOKpg+eccgMq6TLwCr6lEwQPPVw6Fc2w4pmJmS6vmLVM7Zq8Dz34DPmD2fO6k48oPYpe9Z8+teN31h333z/Z/PpXyh1AADgQNjq4FlfgezCYrzaGbjQGvo2Bc8FvwpavXW+dvDsAma82hm4Vc8QGjPBM2mj2P8Vzy5wjg+Sf2/+0f3zStfN36r1AABglxE8lb7xrfn0Nr+3z8GzFiz3P3gGPoA2fGnI3ZIncAIAcKDtwK12JfhFprvVrlD7LezrrXbRRrE9t9r5VjsAAFja6uDZf1s9CZaLUBl/ucjfHo8D5OCzoasGz1zA9OMV+9Y8/YX70tDwy0XRN9uV4Dloo9ieFc9NfLnop+b8ca0eAABsuy0PnpZfvbQB1MkHwWUbsUraFDx9yE0UVjV94O0VPxKQ4YNl/08gDf63IfnPLWlthg5m8Dxhzl+1wXPPXD1/QqkHAADbbgeCJ8ZywbNwK35Ok95qf+EDgicAADuM4Lnr7KppHDIzX0jaN+6fSar9P+zdt9nL/+xSWPHk3/EEAGBXETwPgO5zn8vb8VsTOr3uG+v/Ngygf3HZ/IsvL612Pv9+d4t97+qb5ttKPQAA2A0ETwAAAMyC4AkAAIBZEDwBAAAwC4InAAAAZkHwBAAAwCwInjM4/fxLxcfbKDfHXZg7ykqv4ZjXV7ad4r2xzhha3ynmFEw51li5bY+Z0xRj7Id15zfFPtp1tedVqh+7/0q0Pjh8CJ4zkAecPBhl/TbIzWkb53oYxO+VFtoYQam+1jcm2+b6to45Ztsarf/YMWX7+PGYsWzbFlrfIK5v+b0m13bsGGONHUNrL8vGaO0fz0Gj9VmFNnbN2DG09rIsFtfLtrW+LaYYAwcHwXMGpYM6V7afSvPhBLI/xuz3WltZHz9eZztynCBuk9ParkQbY5Vx4z7295y4z1it/UM7+VPW15TatY5h5dqOGSOI+8j+pbqxWvrX2qw7h1hurFW2EfeR/Ut1sVI/7fFY6/bHwbNzwfPrD//InH7qhPm6Ute784T5zvM/Mt+6U6mbSXywhd+1A3Dtg/IbpxZjjHuubh8utnv6iQcHda5cUaqP+2MztP1eoo0RyPr4ca1vTBsniMtz4vattHECrV72D2S7WKiX7Wr9Wq0yTq6PLZda2lil+rh/TKsrtS+J+8kxSnVxuUZrJ8tisn+NNsZA4RqkjdE8rhD3k2OU6mJav1zf0jiaXPvsOPZ6Vru+Y+ftWPB80BxfvGGPf0OrW7rnicWBo4SqKneyiE8yp8w9WrtG4eCSB1mufCUbCJ65slLdgeHfA7X32Nym3M92rHi88FgT9yu1DXWyfaDVldprcmNocu1L5TWt/XLbt4/jsly7UFai9ZOPS+W5MXJlQVxnf8+J++TE7WSfUl1JaGt/5uTax+Vjyoa669R3Hr5fqUvHsL/nxH1y4nayT6lOKw+/135qbF0sLpe/x2VD95tvPbUYg/B5oO1W8HQhqxYG28LpkOy3/gFQOtDKB98IKwTPktJcN/o8tsWWB0/7s0b2DUJd7qf8vUa2LfXV6sZsy6q1b51P63Ztu5pcv1V/l0Kd/Cl/1x6XyrXxZJ0mrsu1q/WvCe3iPuH3Gq1tS3/ZJtenPpa/bhQWPuIxVtmOrasJ7eI+4fe4LBaXy3bx45p4TI3WJ1UO7th9OxQ8uwO69mZsuhXfaqJQJw+2+HHbgVgwU/DMzXPt+W+bHVvxHLP/Q9u4j+y/yniyLEdrKx9Lsj5+HJPtc79rj0NZTNaPIfuHx/KnrJficu33VcaJy8a0D+K6VfrHSmO1bMdqaVfqH9g2rbT+QXc3qbw4Eo+RG6+2naA0Vst2Atm2JO6nidvkfq+a+LqG7bI7wbPwmZmltnDazL351w8h4YCzP+XBVz0Y/Rx6MlS7enui6/5KDO3SfZDW6W06trxUJuu19pNpem7Ra57sq+F7pf+IQRCtSgzqEvJCIvfn5k+QdjvhZ43sG4S6ljYtWsYrkf3GPo7ZukCrKz2WavU1uf5jymVZ7nFcro2TKy/1y41jyX45cR+NbFPqUxsv1Mftcr+3sO3H9um0XX/k3HLiPhrZptRnTN2YcaXpxqqvHGN37UzwdJ/brK1kuuAxXQjowsh649kDrXSwleqG2/cHYxyE+rAVtavuh/ytjDBfSbbRfp9cFCT78O/LBh+JcO2W+0W+X9zjJED68CjfU7UVT18f77sQWje5SmrHj3/K8txjrTzXxirVSbatHDcn7he3X+exLJc/5e+lspjsnxP3icm68Fj+lPU5pfrcmDFbp5FttN+llnal/oFso/UJZauMF5e19Ldsu7it7Fcdp/FuSWkbtfJYy/xC2ZjtxGX29yBukxPaxf2CuL6FO69OdfcSW2VHgmcXEmoH9MpfKtL4k8g648mDLRyAJcv+mXAoT25qyKz95V0OnrWy+LHWfjKDkGnJv4T9Y3GC6sKgD5q5C4K27yoXD/0PIDmn6YX9bH/WyL6SbCP7x+J2Ma0+1761fOxjWS5/1spyWtqWxsj1b/k9LsuR7eKfGq0uN45WF2tpV+pvjelXGyso9a2NYetlG9m3Nobjzify7shQPFZu3Nr2xvQrtZVCeelnjlbfWqZSr204CHYieCYhIqfxr802fjWs4SSisQdWfHCVDrRsnXs+2kEnQmXm4CyH8PWCZ6xUt7bSc+vDX0Poy14QlD9oiu8jse8jm/7rPLefV9n/67yetj60kW1zfVvLxz6WZa39tXFipTFr5VZuO7nHLWPlHufKYmP7tNbZ33PiPrFV60pCv1z/MePatnF7+bik6Tq1oI2vifvEVq3TaO3l9nO/S7mxWspUBM8DaweCZ/5iH5vuwh9C53Rv+NKBmz0I1wqetTB2AIKnXPE8BMFzDG2MoFRf6xuTbcO2NXG7uL18LMn6+LGktZe0dlJcH/eV4j4xWRce5/qMKW8ti43ts0pdbQ6Sbd9K6x+L22jta2OE7ch2cZmsU2XPM6ncWE3biIT5tdD658j2Lf3jNmGbGq19VuP+xO7Z/uCZDWCxtnBa50PMhKHTkgdZ2wGYCYcyGKnhLB8sa/XafEoniVLd2tTnJl/rhuCZC5Pa+MXguT+32sM+rr02pXaxUn2tb0y2zfVtLR/7WGqtHzNOrm1pDK1ubPtQHteVxs2NYZX6aVrrWn4fY5V+so82xthxbfvQJ+5bHady7ghyY47aVsY6/UJfOUZtzFL9qnXWpv+Yx/7Z+uBZvmXsTfSXkdtWY+js2jbMbWHVg284Hx9w4oNRCU9dv9L+KAdPjWwXlOrW1vTcWkKfb5P06/bBsF+u3HNzSvddd4ut7X2zirCP4585cbucUn2tb0y2zfUdW55Ta986XqldqBs7t9jYvrX2tj7XJpSXxgj9Ja2tlauLy2Wb2uMWY/u0th/TTratPU7Vz0Vx//W2pRvTx7YNZHnp8Rir993sH/PYX1sePLsQUPsL0oWRdd+gPlCocitctq5hu7Zdrkyri3WhJpqL3J7/KztpU/0rcb0Vz/BYazsp7TVZY7Wx/2PB056/M9inIsTX6idkx9d+14T61nbh95q4b+gT/4zLc+J2cXutXArtau1L9S1jyDr7uEXcZ0y/mBwjiOtlu9rjUnmub24MS2tT6pcrW5Ucqyb0KfXNjV/qq7UPan+EauNqZbJOlq1KG0srq5F9pNCmpa1KWXTAwbHVwbM7iCsX9cbbG/spd/CtfFCurS3Ql8wyd04+iZZ9PlWbGm2M3LhjyzUtbWttxmxvTtq8bFmuPP4p5cpblPquWrffNrU/8vJ/CO/qPlzV6s8pvzCCg2GLg2d3ANfefHwOpM7uozhkNgX6bUDwBLBrwh2Rde/CHUo+uHNNP9C2/8tFmED00QBnQ6FTu+0/cNb832p5ygXlHQyeXajXn1Pv1A/Nd7XyBIEb2FnuXMgxPJo95xM6DzyCJwAAAGZB8AQAAMAsCJ4AAACYBcETAAAAsyB4AgAAYBYETwAAAMyC4AkAAIBZ7H7wfPoL8/2f/dEcOabUZdz+8h8Xff5kvv/Wp2o9AAAApkfwVOoPrEffNQ/98qY58qxSh/2zwnt447ZxTrM6Ze7+7KZ5/NJrSt1Iz142j//yc3P3o0odABwyhzJ4HloEz+1E8NxCBE8A2ASC52FC8NxOBM8tRPAEgE3Y/uDpLoB/Wvr4hrl9UP+Fueurn5pjUbuTL78RjZPW6W1m5i5Gl80dX33NHFmEwce9h14/FbXrLn6uzLUP7YYXsdte/zyqX4gumIO6hJ1DPFY6n4N3wXzDHPk4fh/Y945oM8l7zpLbWojGuustUReLt9lvT4wXf1TEtRFB8dgNc3LR7tjTUVlUro3TPCertp/8/rHb7z/e4ij7vGh5HKTv5fS96+o+e9fcVjymFpJjacH18XX+j7OkPpL+0ebDaab+jktpXSJs089l+Mdg9xz6uTedLzpyu7k/NL99/qdmb2/PXD1/Qq0HgE3Y6uDZXazii2m48EYXrv7iF7XTLsKJ7oK4/8FTXBgGF6H4wra8yLoLS3Sx7C408UXYX5ziC6pVW/H09fHFLFzos312ig+KSUBalEXBa9X33LCfD3GDMKaovV+jgNe/Z2Wo1MbQgqcfK3nvL8oG4bQyp6b9FAfzfj/4dqM+Xx0dB/172pdF7/E4lKbH1PKPp65N/MdUGFv+AebLsyue/hiL6/3xqwfd3B9wme24PtGc/NjD56acL+KxCsc8wRPAftji4JkJhy0XXH9xywfL7Qme6QVBXjj8YxEgu4unvyjlLizaxa4SPGWg7dQuwJt17sFnzB/OnNWdeEDtk9Ot5pVW29Z4zw1C3oiAVQl5Xb0IkHKuTXPyQXDtOTXup8z2mgN5Tz8O5Ht8GCoXkve8WEVU2wTl931yDEbUY0g7FiPZMBxvu+V84dpk5rRPxy8ASNsbPN1FTLvwiVCZuUC6i1v2Apu5cM4pczFKL1wNoS9zsQkX2eRCVQye3ba0W3fuwjgIpLumIQiu854bhK4FHxjTFT9FMeQt1Oqtljlpc8wpbbN1P012nGWOA/F+zoXBnmuvBUDtvV8+9rJhTjseM8f6kgjE2jwbzhfd81881uz88QvgoDigwbMWMrY8ePYXNILndPYheIq6LoQqK661YFmrt1rmVJqjVNpm636aJXguj6HdDZ5KgJRjN5wvqs8fALbAAb3VXrvgbWvwlBfA8sXPyYVJbfxi8Ewvfsvyhjls0OS32ou3eNd4z7WEulybWrCs1VtNcxrxvi9us3E/TXacZd6DIuTVg9d23mp3+lBst6u0bTlftGwHAPbZVn+5qPtMXnzx86tWcXhQLpArf5bPO/32DXPl2sLbL6r1k1AuEu6ilVzMWkKfb5P06y6ww365cs/NKb0wdxfYA3Ix88EoXfVcvBeix6u+55qCZy7M+b7ZgFYMgZ7cfniuYk7h2+XJPBfjD+ZdmVPTfhoVPF80F+0xt3DxjKxTjgMfFofv1VLwDMdY/H72Yysr+sPjMeK3n8zJHz+DP+yUuQ6F41ify6jzRWUfBOHLRXvvn1XrAWATtjp4WuFC2ZO3SqMLbK+4qmWVLognzUufzBU8/YUmWGO1sbsILWUvcuGC2RMXqVr9zute++X7ZfgHSvU91xQ85XasQnh0Y0Zta0FXkc7bPq9uDoNQKbeV+/hBaU4L1f00Jng+ctF8WAueyftyGPBabzV37aKxssfXcLvpNv0fcr3CH2jyeM+Gy8wdiabzhdW2r5wXPuiC594H5nlZBwAbsvXBczMyF+Q5KSsYADTtf4DtNHdOyATnjZwvTpjzVwmeAOZ1KIKnXZmJQ2a3UlO6FT8DgifQ6BAET3+nQV2ZtDZxvvArnvw7ngDmdEhWPP3nz/rbgquETnlbTfdtpUxyF5cdDJ6DW5Saq780D2vlCQI3xji4wTM+prKh05ryfHH8TXPV3WLfM++9oNQDwAYd0lvtAAAAmBvBEwAAALMgeAIAAGAWBE8AAADMguAJAACAWRA8Z3D6+ZeKj7G7cq/lKq/xFO+LKecTTDGvKW3bfNahPZcpnt8c+2hbX4eD9P7YtCn3VTxWbVytfoq5TPl89tsq+1CTa7fKvppq/xI8ZyBfLPtYiuuxO3Kv3SqvadwnvC80cR8pV1/rVzK2b5jnKrTxNGPabjPteciysG+CuK5kbNsarY8s2wabnte2Pu+c8PoFsi5+vI4xY2t1Wv9YXFcypm2wSp85lObVOudcu3X3k/09J+6jIXjOIH4htBel5YXCdsq9dmNf0yneA6Ux1hl/irlZU41jTTnWftKehyyLH+far0KOE6vVWy1t9sMm57Wtz7kknrP8XRPqx5J9S2NpdaX+ufarkOMEpbr9kpvTmLlOMYY15f7ZueD59Yd/ZE4/dcJ8Xanr3XnCfOf5H5lv3anUzSR+kcLv2gs35YuJ+eVevzGv6xTvATuGplQf9y8Z07Zk7DjxXMfSxiu554lFv9p5pfegOe62s945Rs5TPodQH37K30tlNaU+rXWrbNcat6+tcft71XnVTDKuuza9ZI5/Q6lTuOudfe5PPKjWt9Bes9xzWec5tvaV7exjSbaLfy+V1dT6rDLmtss9pzHPder9smPBszsB1Q5ad2IbfaDeb771lDgARp0ch8KLJV+0XPnOGHnynMWMc3LvDUWtThPXldrVaH1DWamuxTrziq0zTq1vdexvnFq0yQeX/Qyecu65x9pz1MpqSn1y29Yer7Jt62AHT38dyV1/9jF4yp9S6fm5OaxIGyv+Kcvl49IYY7T0WWXcqdk5jNU6Rq1OE9eV2o2xW8HTXTxOmXu0ul5bOK3zJ5A1wmd4kbQXa6oXcF8c8uAZy72OcXnra73Oe0LrG8pKdS3WmVdsnXFqfatjTxo812fnG5N12mNZPrXc+HF57vcxNr2vN7Gf2secNnhOIcxdvnYlod0YLf1K28k9luWbNvf2SnJzGTPHljFaxxuz3ZIdCp7dAf2dh+9X6paabsW3qlysWskXa5UXfKsQPHu512/sayzb18R9Qx+tTCsPdVq5Joyj0drnxO3H9rVyfZrG2rLgGch9IsXloZ0m7lOzav/QLu4Tfh9jjuCZo7Vv0d53O4PnmOe+6n5adRthfrG4PLTTxH1qtP6aMW03LTeXKZ5PXN4ynmxfE/eVdid4ugO2FgLbwmmzphXWuvAiaC9I7QWy3Ina99UvnuFWVKZNv+/8STG0U06O/a0dZaxhXSzeT8tV57RP1EY9AXf9hq+fmHc0TvucrMp+it8/7rXPtVuy9fFPWa7VSd028m1q/S2tTVwm61vGDMa0LVlnDlaufWmc9NgRovDj2tnjIXnda+8fWR/I9+tCJmjZulpZeKy1LRnbPtYyh9z4g2NSnGf0fZ0eY/pxndvfKdtWK19HdUx/Pkvnu9Sf5zLnYnnOk88/e01L9mFHhlpbFv+My3PidrFS2/j3Gq2tLAuPx4xrjW0vrdt/Srm5jJljaCv7xI9r49n6Uptaf2lngmfTX8nuIMyHhHFyIWic9V6wcHKKT7iLsiei/eBPePE8w0krPdl18+jL/AkrOUm17j81NMaiC3T/mvnnEi5C6hjaPvdjJa/9okyG5tqcWvZTEhiW+7z03uvaLl/D8LtWptHaS6W6wLbRyDba7zVj2pZo44wdW7Zv7l95b/cBVb5fM697997Rg1DTuWohN/fSc2x+vgtj2kotc9PadPsx3i/D43e4r+v7rLS/pXWed077mOI8J7Wei3vaOdGrnoc78dxbnseqbVr6Wbl2sjx+3Dq2NaatZt3+U8rNZez+iNuH37UyjdZeKtVpdiR4dgdf7QBzJ6/cAd8kDh4LDRePEvmC9eMWxP27k205COon7NVCXvPJvXrC8xcb8Vokc22cU3eRWn9OTfspEzZy+0V7zbRyrY0sz7WxSnWB1kaWtW5PGtO2JDfO2PFD+1H9WoJn4+terqsED8/OPaaVxeVxv/C7JOtKbWtyfYtzyR2DYt+rx6Lrm399ms9NC+s875z2MSuvf+N5r6mucaFAe83sz5LQPkdr09ovppXF5XG/8Lsk60ptW6zbfx1226sqjVcrL/XXfpdKdZqdCJ5NJ51K8FhFt936gS3ZF2GKF0wPS7HuJKedlNzcQ9/mk50PjE7heVf3delE6jXNqe0i7hTn1LifRoaG8Lusl+W5NrFSm1X7rztmMKZtSW6cVcYf3We24LngV7CcwvHbuj/ix7k+ltZPE7eJaW2DuI32u+Oet7ZPuuM6HJv6eS1tIxX3tzCY1wTax5wxeIZtLeqt3L6L597yPNZpM2Xf+HFpXK2fJm5TMqbtpuXmUptj/JxbxqiNZ5XatPSP7UDwzIeGWBogptIWRGpKL3DpBZs/eAaVE9ohD54x7fULZfJnSanNqv3XHTMY07Zk6nFGjTdn8Az8e9LOszU0WfJ5df3rz1nrFz8eI9c3Lh+0WSd4Vs4pTfvbW+d5l7SNWzmHNJ33WuuW3D5dtLNk21Aefo/rcmU1uT6yfMzYWt9QVhpH6xc/HmOdvpbtv+4YsdxYY7ahtQ1l8mdJqU1L/9j2B093oNZWHfPBYj3TjCtflPhx6QVrOdnq4VSc/Eaf7ILMSbRykWgau3FO9fDtVebUtJ9yz7dAe/1CWe6nZtW6QGuz7pjBmLYlU4wjx2gecz+CZ1B4b9r5155TeFx7rrVxxmjpO2iTe55i36vHYuX1IXi2XYO0fRvmLecfP879nmPbxGSd9nus1i9+nBsjqI0zxjp9Ldt/3TGC0jhjtqG1DWW5n5pV6zRbHzzdgVQLAtm/tNfjtp0Zt6trmNvC6i9Yd9JJTySLE1v85SL33NMTU3eSjk7io092Qa6Nn1f2ua8yth9T9vNzT7e1aDvYdmVOLftpguCpvZ6hTKsLVq0LbBuN1tYq1Ulj2pasO06uf9O4/n2Ue09qF+zJgqcSquyctXm3lkmhTdy2pV+O7StpbdIyf/wk+2V4XA73deXYXdiG4Gm1jF26bmw2eOrnLznn8Dgul2WyTyiLyfpYqJftcn1by6TQJm7b0k+zaj9pjnHGbEO21fqGslW3WarTbHnw7A46baUg5g70EWFBFQJOLDtmOMGW2ixpL0oo0+pS0bYcZVVgMHdx0ms82fVhOpI94RW32Xiy9GGwY59X91yH/brx9G1FGvdDfhz9xK2x/eOf8ncpbFOrs7S6UFbqF5T6y8e58Wz5qrTxpNZ2Uss2muaRvN8WovDTFDwH75+l5XtWvlct5ZjNsO1bymKyfrndslqfuD4W6nJt5HlEHs/dfi23kbTgKccYIx57rHp/ec6Ozr1rnIs7y32g7Uft3GXLtceyvFZXKtfYtq3ttXa1vrI+bK8m7hP31crHmmuclu2ENnHbUj9bV6vPlZX6abY6eDb9laseyNsl96KMfbGwXeLXr+W1LLWZ6z0y9XhjjN22bT9Hn22Rm3fp+Uz5XMeMNfc+dtcC8YcB2sSvlXzd7GMprl9Xy3i5NqW+U89zm6yzz6S43brj5upa5xLb4uCZW/1KcUICgIPkQXNcuRVfuxYA2A3b/+UiAMDhIj4WQegEDg6CJwAAAGZB8AQAAMAsCJ4AAACYBcETAAAAsyB4AgAAYBYETwAAAMyC4AkAAIBZEDwBAAAwC4InIp+aYz/7k/l+7wtzl9oO2FGvPGku/erHS5eP6u1W8LdP/Jv5jyf+Xq0rOf32DXPlk4vmqFKX4/pcu2E+fPWkWn9Q2X38Lw8/q9YB2A0Ez1U8e9k8/svPzd2PKnUHxO0v/7EYPO96axFMP75hblfqsLSN+4nXzrrP/PD6dMHz9MP/bP7jhevmb5W6GoLnCH9x2fzLC4RPYJcRPFdB8CS8NCJ4bqsJg+c3ry9C5z+bT/9CqWuwSvA81Nbc3wD2F8FzFQRPwksjgue2mip4/r35xzVX4Aie47mPNfz1ZXNaqQOw3XYieN5x6eYi6AVa4HvNHOnrlTaPvmsecmWnzN2fRe0uvRaNYYl667N3zW2+Pp2HELVr032e8tjTIeQtwkDmc5UuKPT1XZ+43krHsP5ojhxb1mthoxQu9Tr5GdDUyZffiNrug2M3zMl4Tm99Omgz2E+ijdtPtuzpL6J26b7sKPuiH6t9P7n5uNcl7RO3GfXaJfOOxxn32tX2U7cdu/03zJGPC+2a+BAYffbywjv3LeuffMxc+NVz5odPinZJaOzqbL9733kuGutJc7xvE8sFz6Pm3GDszvHLi/Lrj5l743K3+la+xX701Wvutnjv7ReTehc8bdmZj6J218xLj0TjPHLRfBiP4V08E7WZWjIf6yMR9F40F/0c0ueot0vHstLnONhPch/E/C33f/ymUuecNe/t7Zm9vQ/M82o9gP2y5cEzBMHL5o647FIU8lyovGkeev2Ur7/D3Pb65y4MHnk2bZOUuVXL6PGCC5YtAXKSFc8oCPShwl/E+4u3fLzgw1USPl0I0MLR0jTBc0kbb1/5wJUEqEVZvJ/cnJPn5F+D6Hl0beIy/xokz1V5XTJq+ykOeP1cxevZ+tqFseLnfPvLXwzeF7U5teynsL+tfp9r780Gxy/bUBmV+S8AnXvFP3bBswuSfSD1ZcuAGoXSPhz6MhkW4zolYHbBVQbWLpD2c/JqK2/dZzHjIOZDWLTCGT6vOSgrrYL6ILqx4GnHTwLySfPSJ3JOUaDsy327vq9vE43VBUwRKl3ILQTNgWfNp39dWmkmeALbaquDZxcgywFPD4s+sIYVTR8845AZVkmXgVX0KZkyeIrwkoQCd3Efhj/XJupXC4lWa3hpqbNq4aXuXvPzH5w1fziju3m/1idH35eJXChaKeR125OrhJrafurGFn80iLk2zcn3WXtOjfspBM+0Xft+KetCXj5kdtIVyEzIdCFWBFsnHzy17elhtBJ+cuFQhCw1ZLq+hSC26eCp6AKjEqK1FdzwfLR5KmXDsev+ltvtwE7a6uBZX4HswmK82hm40Br6NgXPBb8KWr11PmHwLF2ku3CxCAmaJDj44OXoK59tgaqtzqoFqlm1rLRlQnzYd6NCXl/m93kh8Nb2U20/W01zksGwoDinxv00ZntV0YpmTAZPudqYhsFMkMz0LQbPBS3UyuBb/XynC5hamOoCWwhe+upm2mZghuDZr8QmhsGz/M363Iqn3C++ndO28knwBHYTwVPpG9+aT2/ze7MGz3IoSaWft4uDWGugaqmzaoFqVvsQPHtuXL/Plf1R208tr3HTnHY1eIbQmQRAfcVTDZ5yxVMNniNXPK14pdSNoX1WtLLiuU7wrAXLDQfPLnSmATC34lkOnv7WuwuUQSlYpu1Lz88FzxX+3VQA+2sHbrUrwS8y3a12hdpvYabgufrFffgZxLGBavPBc/pb7cV92XgLeex+6mVeq9p+mix4toRvrzinUbfaJwie6q3wtuDpViX74JgJkm58LTRWgme0ymkD7nC1s+PCT27VLRcOXSCt3GoXbQY2Gjzl5zQ7KwXPbPiu0eewVPuMJ4BttdXBs/+2ehIsF6Ey/nKRvz0eB8jBZ0NXDZ65gOnHK/ataghL/QpmJfQMDMeWQaV7nB+7Foi6+gmCx0TC80kC0yIcLR9r+7LbT+sE9CDXprafVhm7ezx87dzcxba0LxeV59S2n0YFTx+S1CA1CJX+W+WV4NndZo8DqxIkfT89NNaCZ9iGnYu2YuoV/03JsHo3DGtxoBoGz2GbgWLw9P2LK4tlck5d6LRjrhI8V5lHZezmb7X/1Jw/rtUD2C9bHjwtv3ppA6iTD4LLNmKVtCl4+pCbKKxq+sDbK34kQNMSPK309nkQB6wucKSG44pxbIhw4SEKGH61Kx4n0OYpt1t/Lhvmnk80J+Wzl7U5NwVPdT+lITBW2mZL8Gx67bxlKB1uK9a0Hwr1o4KnCx/5ILQMeJ1zryxXG10bHyDjNsNVTB8kRbs4rFpyW0tauPQhuBBOw+c8S7d8u9vWSzJMLUNdvs1AMXhGt6tL4bUohFfPhlD3Oo691T58/kHcT2tTGre40uycMOev2uC5Z66eP6HUA9gvOxA8ARxqmVvtqfoK5nhd8Cxvd2E//icdFzwLK4k+7FcD7IbpXyQK5SuuyLbu7xc+IHgCW4jgCWC77UvwHDeeW4HbYPg8/XYa0oa352PaLf790a1kDueRK69q/r/aw4on/44nsG0IngC225zBM76tP3IsFz439i1r5da30q6/bZ8NpXOLbvs3zL/G7uNa6Hz+/e4W+97VN823lXoA+4vgCQAAgFkQPAEAADALgicAAABmQfAEAADALAieAAAAmAXBE5M6/fxLajmwK6Z4D2/zccAx2snth217/Q/z6zXmuR/m/bRrCJ5YmXagc/DvhsP4OtnnnCPbxT9zSvW1vjGtrS2TZBup1qZ1PNmuROsf1Or3U+455Mpzcu1a+tfahHkEWhtLtivR+m+z1jnL5ylpfbB/CJ5YizyoOci332F9jeLnnfu9Vifl6mv9pNIctMc5cTv7eyxuV9LatqXdmO1uWtgPck658hytf/w4V6aJ29nfY3G7kta2Y8bcFi1zrrXZxed90O1c8Pz6wz8yp586Yb6u1PXuPGG+8/yPzLfuVOoOq2+ccgdg74kH9XYjyYN6Ww5y9z55/pS5R6lrc7/51lPR/lo4/o20TbeN6fZluwfN8cV2v/Pw/Upd2ba8PvshvI7hd1kWt9N+1+Tqa/2k0hy0xzlxu7FzCFbZVsmq85habh5j56e1l2WtY8btxs4jWGVbo7nrx7hraun86MoVWjtZFpP9a7QxML8dC57dBVcGAOmeJxZvsrXCwDJ0rHJx327+uWX3T62+bFsO7nWDp3sPVf7AOXjBcxi29+f5bUZ47vFzi8tlu3W0jFFqM8WcVn0ecT/7u6S1K2ltt2m5eYydn9Zelq3ynFfpY8X97O+S1m60iYOnJswvzFuTax+XjynD/tit4One/LUw0RZOi6LVQYKnLuyfVtoYm7Re8JzgPbRRqwXP+uugvfbdtqp3GXZA/Pzl7zWhbavWPlq71rIa26dE62PFdbJdqa5kTNtNsXOQQrlsW9LSfuyYVphTjtbHiutku1LdKCsEz7G0+bXMufScW8oxvx0Knt1FsXaxdYFjrYtkuKg/2LS93TNN8NRs0wG/VvB0H9UgePZmuOjMwT7/HNkufiyV+sZttHIptJM/NbYuyJXHdbJdrLVOtmsdXxrTdlNyz8X+zInbB7nyWKlNPH7crtZHK7dKY7SOX7WBc0DL3FrmbNu00vpjfrsTPJs+t9kWTkuWgWWNsfqVWX8hD2/8QZgT9erzk20WkmDt68XY+VvFevsQtpLtRFpCmG3XXK6GOxmournax/1tG0cJlOr8ZbuW/b1QCZ7pXPT3SP9xj2j1vO311efkxuvbdMa+N20frXyp/N5I9ofc3/K91nwM+BXV2KCN3Efytenqm94nnq3Xyq1SnZRrO2YMq5vvuD6aeIzwuxy3th1tjJa6kjFtNyX3XHLlOevWx+K24XfZf8z2Sn2L4yTnqYXs8Zwer+k5SDmWB21Stj7+Wfq9hW0/tg/mtzPBs+Uzd93BUQunBckFdnkxU9uWRAdx339w8VZWrZT515+3HhZGB8/m+rxwwMsDXz0RqOFOD55uX/bz8Se3eH5+f8djDVc8a/s72pZG3ZfKmF4fFPt+fvxknJb3QGO/BnY+WvlS5rWXc2p5n/rXxOrnOXjNM9tL5F/v5fOPXrvC+yTMRxPahHbx4xKtbShbdRz7e07cRxO30X5fZ4xaXcmYtpuSey658px162NxW+33lrFyY9Tqgu5cqZxz4vNnfzyXzwOptvOUNq9Qlpuz1M0t/1xbx8E8diR4dm/gNKQMuYtf8SJWll48u4Nv7MXd8QdpKVS5gz0JE5bcZsuFWW8zd/AsHejqQT8meBafm95GBs+2/e2pc9PkT6za/l9pTurJve2ELtVPvsq+9PtiWVbaZ/KiVHt9689D7rOg5T2QPwby+yKU1/dVR2u37hi5fi3jxW1ax5Vax2gdzxrTdlPsHKRQLtvFj6V162Nx27HzCFrH0MfLHIPyHKiehzLngl7beUqbVyjT57xk62Ub2bc2Bua3E8Ezd/FJNIeFjMGBVTuoCtSDNOUuiov5quILqL+AO+pFdOxFV2/fXq+z88s9lnWO+nrJE1XLc+v6yNddvmea97fV/F7Kn1i1/b/KnPRw2nZCl+y4WvmS39/xPBa010i2Cfq2DceA1e0T3195z7l9pL0X3fhhX449Brp9EYvL4581WrvWMWx9oNW1lElxG+33VcaQtHY1Y9puSm4Osrw217h+bF8pN1b4vWU82U/S2vXkH4y97pjqzzGZ4zl7fDr181SYkzq3QrnGto3by8fYHjsQPMUBkKFfoFtpF6627apag+eY+fow1B1McQgfe9HV27fXD9UObrV+P4Jn6/6eM3hW5jRl8LTKr1XLa9+47cbg2XPtF9u2oufr9pE2nxWCZz/+QtwuFupKbWKyvezXMo7WZpVxrNAubj92rLHbqmltl2P7rzuGlRtDlte2Feq1dqU6jdZe9q2NNXZbibWCZ+18UT9XlJ53rixm6wOtPPwe12H/bX/wzB4YMXGQjJWEOt2osRsuujKENBuEoraL7lLtZFGrT9l9o5XH1DZquJMnqpbnpp/cXJto/47a3+rcNPkTq7b/5Rxa5qS28fNb5f1efr1aXvvG98fY4BmIfrl9lO7flvdJXtgnct+0vrfjdquOUSpvGSOQfWpja1q3N3W7HNt/ijFay2vbys1HltXGsUIb+VMqjdWyHUtvlzmHyXOgejzXgmW5Xs5Hm1/rcwts+9An7jt2HGzW1gdPd/Fousg1hopm3cUsd9B0wSYzt6aLbndQtlwYE8rY8gLbz00dux4cuv71/dl6MOvt5EnJ74+krC1QyPn2zz95DiP290zBs2lOMmT6x+l+Gif/uo0JlZXtNx0DQ4N9FJ5vPCe//bF/fIXnXfsZyMeauE2ufW2cUn3LHILQdkwfje3fSusfa2nTYt1xcv218tq2xvQpjRXqatursf1baf2782V8rPrjKT4v5a47xetE/vyYm4s0pp1sW3uM/bPlwbN749YCgDsAahfL0bqDT7+4+gPTvtm17TZfdH3wSMT9avV6OztndwGPThzdBT0eJ9DGi56fJ18DWxY/lkJ9sZ0PEB07D7nP/TwqgULO1/V3Y8uTYuP+rATP7oSrWW5vOMfc6l3DnJL9ZPvL/TSeHWtYru9vVTInr3KhGohC9JJ2IZP7SI7b9j6xfbWf8vdYrlyqtSvVa3W2LJTHv+fI+tCnJu4T99XKpVq71nFq1h1n7PMcu71ae61eltnHLeI+cV+tXCq1G1wf5DlAO1bF+W2oO25XOU/Z8eOfmngusjz+Keu0csxrq4OnfqEWKiEB02s9cDnAsU1y78fa+3Td+qBlnGCVerQr7cMx+7el7eF9vbrgueq1eZ39dnj3+W7Y4uDZtqojV/YAAMC87LU4DplNC0c4lLb/y0UAAGDLpR95InQih+AJAACAWRA8AQAAMAuCJwAAAGZB8AQAAMAsCJ4AAACYBcETAAAAsyB4AgAAYBYETwAAAMyC4ImRTpqXPrlhrlwLrpmXHtHaTe0Bc/PMWfOHM8+Yn5f+/280utf8/Ad2fy7dvF9rt7q73vqT+f7HN8ztSl2O6/OzP5mTL7+h1m+X8J60vmfeVdvsqDMfRcf4wtsv6u120SMXzYeL53TxjFKX4/tcufaROa3VA2h2qILnuycWF4gfHDfnlDqswF2cCsGzVj/KjMHzzuPmXzcQxLbJJMfCsRvm5CIk2qDoiJC5tcHTz/vY00rditz+PJDvGf+HZjZ41uq3EMET2FcET6xu1uA5owMfPLsQv9bze/qLRUD8ozlyLJS9YY58nAbNVYLnLDYQPK0ufB6wlU+CJ4CJETyxOoLnblr7+X1qjqmrkmn5YQue5x58Zp4V+VkRPAFMa7uD5/3f8ysI4vNoJx4QbeXn1eKTf/w5rKF/ffDerp16Me769m0W3MXFhdd03LiNC7h2jm7+oc0qF6TupP7hqyd9iLO3eiwlzCX1mQuBbLOQnHy1oFg6SWeC5em3020kPrlojkZt6+Trp6woudfO7t/a+ySEg6hN9LoM62Jyu8P3VfLeGTGn4fs39xyjNuofUHJOmffcusFzsNq55MLmW5+mv7v2i98d0U/erve0UBhuw5fa9CuvfbsvzF2+7vaX/xiVS8t2q1p5xdMdR/YWrg9x4VgZHMOiXv2jTrZZSI45PSi6Y1Y9NvX2y1vPulVDXTgG4/PpeC+ai8l8tHOaLSvvb/U8ljt/vfCB2dvbM3vvnx3WAUjsQPDsLqL5gDgMh12/4UW3uOKpXoyHY8fhpG8rttddgOJt+WAxerU1PjEuP1skLxJHX72W1KsXi5a/8icKns31I3X7vhzK0tdEvJ6Z98VANZjZ1zOdRze3aOzWOYWwmLw3FmVxQFXmPXgv++1p79VuezLcCiPem12A04NavMrZB8Uxt9/V1UgfJn2gzbfrVlzT8RdlcT9ryhXP6HVuem9p3HHSHefuj0xbNjjuujDV1/f90uMrHyCDiYJnc/04awdPv9/i/dSdH6N96dtoZaXzY3HfEjyBZjsRPLULdTgxuRPV4KLZXWTlyWu64CkuMKKvtp2u39jVEH9SFye7NGh2F6TBCdNdlKIw2hICtTY7FDzbXruG10Adr0L2aZxT90dKaU76e7kbf/k+1N/bPmzKVdZVnl+kFDxdXRw8Zch0oU9fLV3Wi1DoVkyH23PjR6GyC7oNK5eTB88VA2fgjhN5jKVB0x3zg9DTnR+WIaslBOpttiV4rkt/HmKOmXOa61t4HsXgCaDZDgTP8km9u3BniAvudMGzHF4mD56lk3r01/tQHPr8WL6uOUgeoOAZyrr3R+F91RLM/B9FUt+naU6ZYJiI5zzUjZ8Jpwtun8n3fMvzKxi14jlY3exWJbOhTwmFxVvk/fjKqmjOVgbP8nHiQk9/XAvx+cGHWGdEkDwYwbObS7Iq7CXBPXNO08P9EsETmMbBCJ65MCkc5OCpBsOM+CJWu3V3sIJn4APfon4Z3iK1YOZDZzK27NM0p/bgqT+PYN7gmf+MZxr+8iueqwTP2krmIQieY0JP8gdp5WM4CwTP+j4meALT2PngOSbQHcjgqX32q9HgRHpogmeQCX6VYKbOQ/ZpnFP9D6eWcJobZ7XnV5f5VrsIdGrwLHwxydFCYa2Pp6+wKqYMnlNoOE7Sj9eMMDh+D3LwzD0PMUf1nFZ/HgRPYBo7HzzDxbx88e50gSE3ngwFflwRFLYveIaLUiYcZiljyxOyf5wdu3bB9P1XCcWa6YNnro1/7XNhT74v/faT1dPWOYW+ybYW7eLH2gqrpLTJvt/XDp5hFTIOg8MVx2EQ9F/+Ka1KqqHQj11b9fR90/GVLxe1zKNVy2tT0/QHmv+m9tjgo4wtA5R7nB27MZCtEooV3Xt2jf3pnm96zunOj9E+UILnoI2iGDzDl4uuvmm+rdUD6B2A4Gn5oJDQ+7lQGLVLTnD+IrLsP7yFuY3B0wrhMxH1q9Xr7ezFRH55yV8ANdo8/YWgN/bCGYU6qX9dGkOefO2TMaTBdtPXLh3Lvle67Y0OnlF5bltO8t705B9blTnLdusET2vw2UsR5LTPZlb/R6LsamQIn6lhOx8qe5mwGkJqrV3F2kHJagqelnbsxf1q9Xo7G9LccR8dm+r5wtHG8+epqN24P4KXJtmf0R/MHRmKtf1UD87F4Hn8TXPVBs+9n5rzx5V6AL3tDp4ADhcXCOu31YG5ueBZWAR4/n2CJ9CC4Alg39z1Vhoymz+nCWySXTWNQ6Zyez4RVjz5dzyBKoIngH0kbo0TOrEl5McN9NB51rznbrHvmavnTyj1ACSCJwAAAGZB8AQAAMAsCJ4AAACYxaTBEwAAAMgheAIAAGAWBE8AAADMguAJAACAWWwkeF65fosxv7O+bK4o9QAAADh8Nrri6QLob79iLih1AAAAOFw2e6v96a+YP//uS+Y3Tyt1AAAAOFQIngAAAJgFwRMAAACzIHgCAABgFpsNnl/9mvnNb28x5vqtSh0AAAAOkw0Hz86Fj7/k/nmlP3/8NbUeAAAAB9+Gg+et5vcETgAAACzwGU8AAADMguAJAACAWRA8AQAAMAuCJwAAAGax0eDZfZv9y+aKUgcAAIDDZSPB88r1W9w/n2RY7QQAAIC32VvtAAAAgEfwBAAAwCwIngAAAJgFwRMAAACzIHgCAABgFgRPAAAAzILgCQAAgFkQPAEAADALgicAAABmQfAEAADALAieAAAAmAXBEwAAALMgeAIAAGAWBE8AAADMguAJAACAWRA8AQAAMAuCJwAAAGZB8AQAAMAsCJ4AAACYBcETAAAAsyB4AgAAYBYETwAAAMyC4AkAAIBZEDwBAAAwC4InAAAAZkHwBAAAwCwIngAAAJgFwRMAAACzIHgCAABgFgRPAAAAzILgCQAAgFlsOHieMnd/dtM8/sulI89q7bbJcs7bP9cD5umvmD//7kvmN08rdZiG28dfNle0ulW5MW8xZuHPH39NbwMAwMJGg+cdlxYB7rN3zW1K3fx8oLz0mlIX26Lg+eRj5sKvfmwuCedeUdruvFvN7wkus7hy3YbEqcInrxsAoN0Gg+dr5shWrRq2Bs8t4oNnEjRfedKFzwvv3Je23WlfM7/57SIMXb9VqcP0Jtzfb355whALADjoNhc8H33XPETwXI8WPBeOX/6xuXT9MXNvVLbLLnz8JcLL3Pzt8d+/qdSNQfAEAIywT8FTD4Hy1rx7bNs8ezn6nOjn5u5Hl316SZub5qHXT3Xlfh5xXWw5v+Ut9k5mOwu3vf551G5Bex6t8y7JBM9733nOXPrVk+Z4VBZWQnuXjyZ9unrb5z7zw+uFdl89as7F46htxBgL6Ry7ersq2801tBNzdrrVt/yt2nvMR393yvz6mXvMrScfN1+8d8r7rvnom6LtNx8yv+7rZbtunF+c7H7aOjvmU898t2v3dw+Zp6Kx+vLgJ3+13M7klnOKuecctfubnwzbDOY12AePm7+J6yPulvtvv2IuKHXNCJ4AgBEmDp4yvAl9qBwRPLV+4nOjIQjGIfe21y+LoKdvU+UCox4UuzldNnf0Zd1HClaZd1XjiucwiPpgGAfGKJj2t+kH4yv9BnwwVcZe3v6PgmnfTulnVVfe/sr8YhGgfvETGzpDiPJBLQpdISj+4uSyb1cW+thxvmt+7UNsH+LsGC7QirGTINrNQQbBSYSgGAdIX7Z8Lt32a3Pqnm8ayN3zFKG6N0VoJHgCAEbY/hVPNWRGwc9vp1/hzJogeOaek2jfNO8WSvAMK4jLsi7QyXC6XOGMH8t2Xd9lYJSPh9TV1oU0DOsBVv2IQC249Ct46cqdC1QhrA2CWtQmhK4k4IUVxm5MF9h8u/j3fiy/0irHX98wQDtue8sAqYZH+ZzdY7kK7AOrHD+Y4Ha7WzXls7kAgEa7HzwLq5OpCYKnK9fCY/pFqqmDp1s57InQp7YJnjM/fNK3c8EzepyR3BpXVj5deFTK06DbHjyrn+/0AStdbUxX+9KVzUCEuiTMpf1tsOt+D4FUkoFuIpnAPFyplc9/+Jy7x8O5y36JNYJn9834CT4jCgA4VAiemi0LnoPVzFhLG6sxePb8CqkThcWpg2dtxVMNlSKwJaufgVildOMkq59pCHXtMkFwY5Jb/IFYpUzmGsiPA2RWTmtc8Fzv302d5HOiAIBD48Dcate3E5sgeG7Brfah+u1xZ2zwDES/yW+1V1bd1NvM2q3oJHSFlUu9TTaEbkHwDCuX/UqlEjz71c3+Oa8YPPmMJwBgZvsUPDMhc9F+dPBc6PqmQXH45aLQriH8ZVdRfXhNxvBfLooCbeu8qxpXM4ef+1SsGDwHQTPc2o9DpV8dXW5/RPAs/puSeqBKguOCC5V9gOv6/Ponj0eBrStTV0iT8Oe3J4NuziMXzYfXbpgr1z4yp7X6GnVV9nHzCzv/JHhGj32fJJyGviKg1vCtdgDA3PYtePaBzbNfDnLhbIXguSxPx4vrOyE4Li3nl84noa3MRvVyW3MHTyv5bGYwCIeV4BlCZWK4utl/Q70nxx0TPMPnPLVbvtFt8L5MC6P+9nQcyOJAmawa+mDqQ9twtTQdK9BXQV80F13wvGE+fPWkUl/XhWbPBd7hc+5XOEMbZRV0MFaQWwWd4ItFDsETADDC5oIn0Gx3/+eio69ec8Hz4hm9fhO6ICo/GzoG/3MRAGB/EDyxHfwK3G6FT7/i+clFc1StX99gRVbeel9B9430icKif934v9oBAC0IntgeE3zLei6n3+5usV95+0W1fkrJrfY1Q2e3jydeoXSrnjbMEkABAGUETwAAAMyC4AkAAIBZEDwBAAAwC4InAAAAZjFp8CTAAgAAIIfgCQAAgFkQPAEAADALgicAAABmsfvB8/7vmT+cecb8/E6lbuBe8/MfnF20P2tu3q/VAwAAYFO2P3jeedz8aykoEjwBAAB2wiELngAAANgvBE8AAADMYmuD57kHn3G3xHXfM++Gti542scPmJtRmzSoLm+xd3JBVbZb+MFxc27Qruz02zfMlbdfNLee+chcubb43blmXnpEtn3RXOzrOxfPhLqT5qVPbpgPX33R/bR1H7560hx99VrX1o4fj5VsS6mfVZh7NF/nI3NatpXzTtp0++fimeV+svvH7d/F73b8eKxQHiz3Zerb539q9vb2zNXzJ9R6AACwGQdkxTMNk11ozYTLwgrpuydWC5pSH4A+uWiOurIuiC0fh7I0iHUhLQRU38cHKFf3yTXzYR9ol0G26xeP5fvuW/hczn05Bx8e4zk9crF7PrJfv59C4Oyeq92vH9p90Afa8JyV52vH9vtuOX6H4AkAwP44mLfaS32ywdOvdp54QJSP54JnEjK1cKhIwlIawpJQmgTPsCroxwhcm8r2hOIq86j9ogdfbb9I6X5Kw2oX6Lu6pF3mubr2Yg4AAGD/EDwHdT5orbHy2Rw8B7eZO0nw9MFpGLR88PRhVRsnXhWdV3vw7MKkFPZTFzzDLfW4f7w/ut/lGF4l6AIAgPkQPDW+fxdCo8+TNmoKnj50Jp9T1FY8G4Ondkt5/7QFzy50puE43U9jgme0bwEAwFYieJbUtp3REjzVsLRK8BThbB3z3mrX26T7pS14pvsDAABsq+0PnuHb6rngs8ngWWjbrdYNg1NfVwmeg7AU3TIfFzxD3Tateo5Y8Yweh+cxOniG7cX7tyB8uWjv/bNqPQAA2IwdCJ4Lya1vS/5zSrXgmf5TS4k+0GptcgE1BJ2FVYPngmvngpZlg2QXtMYGz2V9PN6y7/zagmcIlv18bZ17bmODpxW9JhE1jL/wQRc89z4wz8s6AACwMbsRPIFJnTDnrxI8AQCYG8ETh49f8eTf8QQAYF4ETxwex980V90t9j3z3gtKPQAA2CiCJwAAAGZB8AQAAMAsCJ4AAACYBcETAAAAsyB4AgAAYBYETwAAAMyC4AkAAIBZEDwBAAAwi90Pntr/1Z51r/n5D7r/h335/7gDAABgDtsfPO88bv61FBQJngAAADvhkAVPAAAA7BeCJwAAAGaxtcHz3IPPuFviuu+Zd0NbFzzt4wfMzahNGlSXt9g7uaAq2y384Lg5N2jX4MxH5sq1G5GPzGnZ5pGL5sOkjd729Ntp/cUz0Rj74qR56ZN0Th++enLQTs5bbSv3wScXzdFojKWz5r29PbO394F5Xq0HAADb7oCseKZhsgutmXBZWCF998QaQTNmw9TbL0ZlPqjFocoHrjiEdUEtDp2+XzyW77ef4fP029fMS49EZT5kx3MaPBfl+Xb90rFcPzV8EjwBANh1B/NWe6lPNnj61c4TD4jyaRx99VoaxJTQNShzj4crpS6cJcG2RlnJjWT3bbMXzcUkVCqBeVDWPR6slLqAKvYLAAA4EAiegzofyNZc+dRvM5dXAOVqXxdW5Rhe9pb0DPzc5ZyKq7eDldourMoxgv3/OAEAAJgawVPj+3chNPo8aaMudKWrdoMVTzV4paubwz5bIITOZDVTrnjqoTld3Rz2AQAABxvBs6S2bZV2m3kYIt3j2qqldjt+JRPealfnJENk97i8aqnvJwAAcHBtf/AM31bPffZyk8Gz0La/la4Ep/wtcxE8q6uZPpxt06pn4Za5DJ7V1UwXYltXPcOXi35qzh/X6gEAwLbbgeC5kNz6tuQ/p1QLnuk/tZToA63WJhdQQyBcUFfslmHMsSF08EWhaAwhXSnU2+3nZyDlbfSLZ7o5JgHSh8oBucqrtVNXgk+Y81dt8NwzV8+fEHUAAGAX7EbwPIDkqmhSvk0rnKsYrIqm5W0rnIoXPiB4AgCwwwie+8KvYg6CZ658x/hVzEHwzJU3CSue/DueAADsKoLnvhG344MD8mUbeTu+s9oXpZ5/v7vFvnf1TfNtpR4AAOwGgicAAABmQfAEAADALAieAAAAmMWkwRMAAADIIXgCAABgFgRPAAAAzILgCQAAgFlsJHheuX6LMb+zvmyuKPUAAAA4fDa64ukC6G+/Yi4odQAAADhcNnur/emvmD//7kvmN08rdQAAADhUCJ4AAACYBcETAAAAsyB4AgAAYBabDZ5f/Zr5zW9vMeb6rUodAAAADpMNB8/OhY+/5P55pT9//DW1HgAAAAffhoPnreb3BE4AAAAs8BlPAAAAzILgCQAAgFkQPAEAADALgicAAABmsdHg2X2b/cvmilIHAACAw2UjwfPK9VvcP59kWO0EAACAt9lb7QAAAIBH8AQAAMAsCJ4AAACYBcETAAAAsyB4AgAAYBYETwAAAMyC4AkAAIBZEDwBAAAwC4InMBP3Hytcv1WtQ8UPHjf//r/Omf/vHx43L331PvMP/7D4/X+9YP7hB0rbmbz0319YzOGc+ff/fp+Yn95+e3zN/Oa3t5jfv6nVAcBmHaLgecrc/dlN8/il15Q6pD41x372J/P9n/3RHDmm1e+gJx8zF371Y3PpV0+a44Py58wPn4zKNkD/72NPmpc+uWGuXBPefjFqg86D5jc22P2PB93j9/+HCJ7/9SkXArN8v0n5bf7mv9rHfn6bDJ5/9U/m1//l/yyd+Z/me0q7l/9z1Oa//G9z6S+HbW5988vuf5cjfAKYG8ETibvesoHzC3Pk5T8eyOB54fpz5twrsnzDwdNd5LX/PtYHzyRovmgu2vD5yUVzNGl72GnB8ynz/qDdsm0XCDdIC56bCLjWX/5P809JiPxv5v+xwfI//7eknQudUSD93qP/Oxs+9T+GAGCzCJ7o3W7D5lufLn8/gMHz3DuLn9cfM/cm5ZsMnrea3//uFvPnj7+m1GnBc+HMR+bKtWvmpUeiskMvDXbdbe5tCp7+9v+mgqeiC5X/ZF4OZW5FVIbMF8ylM8OA2uluufPxDwBz2lzwfPRd89AvF0EvUALfba9/vqxX2txxyZc9ezlq97m5+9F0nFu/+po5Eo9jhbHkPIQjz8qxSt4wRz7+kzn58hs+mNnVwW6F8C7Z9tgNc7KvX/j4hrk9adPdzj72dAh5ubG6bS7rFwZjyTEWfIAM3EqmLXv6i6hdPlhuR/A8as7ZsPhK9/OS+/0Oc/xy9/uFd+5btLnP/PD64nEcJr1733lueWs9BM9XbPsoaGrB07e123Cag2qYb1TmVjtzq0qZ4PnIRfPhtRvm4plhWX87frAi2q2U2j5HX722bHftI3M6aafc3ldWV9MxFsQcT7/ty1xIDu22JSxXgqe8LZ/cHg99fdB1v4cVVv95znisfSRXM91jefvdrZTaW+5RQI1lV+O9Fz4we3t7Zu/9s3o9AIy0meDpg+JDr59KyuKQ50LlLy+bO0J9CI+fvWtuS9rEZX7VMmrTvpI5xYpnFAL78OfL4jDowl0a2lzwSwJj+BylMlYUGof9hsLt8WVg9WNH/bo2cZky78g2Bc9LPujZwGlvldvAmYTKV57s2yz7doG0C6eLx33w9O0vH43Ko77KWC7ohvAZj+Pre0oodV8o+u1XzIW4Xa9xxVM+XnDBLwmM/ha91ZcPxx/2G3JtksA6vP3ftYnL/LYqY88jHzy7ldL4S0nhi0ph9TQEzq6NDZz//g8vuMBZXmWd38vus5zLQOkexyubbgV0Ua+uhAbdinz2s54ETwAT20Dw9AGyFPD8KuRgtdEF1uWKpgueScgMq6TDwJqEXNWEwVOGtSRodm3sqmjS162AxkHOh0NtZVKGQ9Em4VdW7cppUi7CrxZgu3CprNb2dasGzwfMzTNnzR9Uz5if36n10fjg6UNit9LZhc0keIp2jgyQSWC07eOV0NBOhNUgaZOuaro5he26bYY5Wd2tTP02u6UEz7Cy2Zd1bT589eSyTd8uDqM+HIoQmwbNTNCNaautlgi/WoDtVknlCut+yAXPrnywaum/kd6198FT+SzpVgVP/0Wjf3r0BV+W3lJPVj+LwZPb7QDmNX3wzIXKmAuYcXgMuhAZ+rYFT3HLPhssJwyeMggm4S9ayVQsA2LXbhBQpfjWuLY66eq18NiNH7Y3b/CcShfyQhCMVx7T4Dl8nARCS6xU2no3rhIq+1vsQtc3Dqehvd+uDZ7JLf/S5zstHwRtYIykoS9ayVQs23btBgFVcgHS99dWJ129Fh678cP2djJ4uoCp/RNM3apnF0jTcOqCp78VvzXBM9w+F7fVw4pn+Nm3DyufUdslgieAeR2I4Nnzt/jT2/PBpoNnCGmNgbK5nZd8ZjQKiwTPru1gRTO95S2Dp3tsx1KC52DFU+hDre27+Gkf23HdnJLgucKK50BjoGxu5yWfGY3CIsFzu4Nn4TOb3Wc+41XQuLwcPPPvUQCY1sZutRdvfU96q10hxulsMHgm4S/TZmBk8AzkrfVDcKu9KXiGehsI489wBjJ4upXLReB8JQ6e3WrmoK/gtr1oY3+68fz2+u1HbVf6jGeipY01MngG8tY6t9q3OHj6f0IpFyLVW+qlb7Vblc94AsDENvLlonDrOwmWizC4fOxDYBIgh58NXTV45tq48WqhtUgJlT74JQHS3x4vh8oVg6cIlP2ckgDZjR3P88CveFruM5aLNknA9AbBc2HR/sLlhXh11I9RXPW0beyXnPrtdyusF7TPhxa/NdwYKl3oq4XKFYOnCJTL2/9xgOzGjuc5Knj2q6tzhdJc8Ayf2VS+XNR/s30zwdPtr1Ven54PkNmVS8u3afx3PJ3Wb7VffdN8W6sHgJE2Ejyd+La3CJRBFwSX5CppU/BU/7mkXLgMgXep+JGAgRDyUoPVRsuHz0QS/FqCpw+QCT0MumAZtZPjNgXP5Ha+UF3B3YSRwTOsWCa3uz0tePrxB9+IjwJsLx7TjxWvbrq5LcoGgdevKOmfoWtdzVzw4TORBL+W4OkDZCL9tnwQglIgxx234rnc7urBa4x88LS6AGkDqJf825ubCZ7dvrH7YLXwHW6jq5LVzBBQg1JQbfh85/E3zVUbPPd+as4fV+oBYKTNBc8DqfU2OvZH5lvp+622qnQIhOA1uIV/aPjwLcL6fmr9n4uef5/gCWA6BM9RCJ7bLF4R1er3k/us56ENn9sXuua2dcHb/THU8NnOsOLJv+MJYCIEz1EIntsn3C7f3tAZuPB5yP7Zmv6WfcvHCQ6i/vOt+kca9kd3i70cOs+a99wt9j1z9fwJpR4AVkPwBAAAwCwIngAAAJgFwRMAAACzIHgCAABgFgRPAAAAzILgCQAAgFkQPAEAADALgicAAABmQfDsyf+HXf8/0acT/cPnjvx/xzfs6a+YPx/y/8YRALaGOyfX/wtTYNcRPDVPfzFD8Fy6953nZg6et5rf/+4W8+ePv6bUHXy3v/zH7o+LQ/o/UN1x6aZ5/LN3zW1KHRodu2FO9n+kLh3jD7nNevRd89Avb5ojzyp1I23jcdD917qETxxsBE/NgQ6e3X+Xd9j+60bHh4WTL98wx2xQIHiq9Wjg30tJ0HTnDfv+eiNti+kc8OB5qM/PODQInpoDHDwvfPylQ/oX9aeLsBleU/s7wZPguQYteC7c9dbiffXxDXN7VIYJHfjgueBuudf+L31gd20ueMpbUcpFvr/lmWnjTuK2zK8kdLRA6INEbLA92aYQLGvBM5nPwpoBphw87zM/vB5/FvTH5twrw3bHL6dtggvv3Be16/6azt5id8/rC3OX2FfaCo57baI28gLsXlt3Aa6MJfflwvB2ZeW1c+81WyY+p5t9Xfx4a75u6ztl7v7spnno9VPmttc/N48vLqidy+aOuN2zl31Z175vd+m1aCzrNXOkH8P63Nz9aK4uZecQj5XOZ2GwrUMuEzy7c5o9hqLy2vmiP+5q7195HGht5GfV5Ry7enscpudfMecW/fsyfW+l76Xle7xrH9rF781O6T03qEuI42WC46Db3nCOMvi68GrnWXluYT+U2yy5W+6//Yq5oNRZ3z7/U7O3t2eunj+h1gPbbDPB059ok5CxKItPgF1wiU92/qQarRb04aYv8yfVZEXBl5VChL9IxPMJJ91hyFlw89eD5/DC0rD9inzw9F9Aunx0WfbKk4NA2YXOqP+Tj5kLg9C5UPtLOrpA9vvFly33k/J8lYtwfFFLx4r2a+binWh57Xyb8rxj2xU83YWoX3nxZfFKTHRR6y/qcuXHP44v+uFiLVeHais9rj65mPuLNaukS5n3rlzxbDpfRMdd/z4fjN9ynlHe137s5fHjx0narXg8RO/L/j3my5bvuThwLd9T8j3Y/J6rrXhOdhx024/HsdxYg3mnc889l2Qst58K4fPNLxfvTBE8scs2EDwbTmK5wCGCiTyJW8MTebe9JOQK2jjFE7kMSL1uW/q8V1gx8HLBM1fugub1x8y97rFfEY3DqVq2UDmZhYtU+vzEfso8V7ePo33ZvU5iH8rXPbufl5peO/X9VHpfrHihnZwSMi15URpczK30YqZfRP34YrWyeMHNXdhrF8qNesDcPHPW/EH1jPn5na1t7jU//4FW37l5f7zNCuU9N/iDqPV8oR538v1bej93hufGTnoM6ec9/TirUN+X8j2nv8e7MOjD2Zj3XCV4TnYcLLQEyGGbBTFHGVY73ZxksO1xux0H2PTBMxcqY5nwIk/U2slQO7mGE376V3zQnWi1E7brp51sc4HIP7d+W4lygCopBkwZHi236rlsn1vxlLfkq5/vzDzv+HVI9rUU7cvcRTDlL4K+//A90/ja7XrwFBfEwcW1GvryFzHtole84LptiQup0110cxf8Q0c9F4j3e+v5Ine+EcrnOX+cau/p5Hw7dfAcvi/T91fmPR4b854rBs8JjwNLPQ7TeepjKH8ULh6rcvuF4IkD7EAEz54bd9HH6vtNHzyLz20F6wbPrr8Nn0uD2+xW04pnJnj6C1VboGxvF7ht+Ndu+Vod5uApVzwJnlul5VzQer7InW9y1PPclgXP/j29w8FTzN22l2PrY6Tzrm9H4YIn/84yDqaN3WrXL/he7oQsTsCjg2fQME7uBOxkLwQNz20F691q7z4Hqn3haKDpM57yeYvwl903qbHBM5CvVdNrd9CCp7wQV4Nn7uKmj1+8EOYu7A1z2JzduNU+1Hi+aDymBkS/3DGXHkObDp4y/GXe47Ex77li8JzwOAj6Y9GGyWE4VscQfzi60KsG64LaIgGwwzby5aLuBChOyouT5PKxP/klJ8lhGNBOhi2BZtDGnaDTC0DXJnOyL1wI1OeWcfTVa+bKtRvmyicXzVGlPsgFzHDLXPty0TJodsFTXeEcqPwbccrzdq9Bsr+1126o5XUaUi6KLa/dBoJn62u3HuWC6C+sycpKS+hzbdJ+3QVv2C9X3vFzSi6U3QpOMTwcNo2rmU3ni8L5pmRwjPk5acfP4NzbGDyLx4HyvnRBLHnvNATPUe+5yntxsuMg8NvLbHMYPLX5+bJayI20fqt97/2zaj2wzTYSPB1/wuspF/ku1CzJkNAUPMPJNqEEnkE72caHEY2Ye7iYlNpYp99enLBzJ+0QKhVpiJT/teZz5odPRuNYPowO9KuiS93nPDO3cORrZqmrICF8puKL6+B1UrTux+prp4aAYfCU77el4UW/+NpNJlxwUyuvNvrQuhwrv8rSBYQl9RZiof7QU99zuur7vCV4tp7nBucxOe644Fk8DnzISzSuNmqa33O19/mEx4FVCqiyf26MJMD2Msd0y+c7X/igC557H5jntXpgi20ueGIemS8SZf9JpdKq54orL1hV+0UZ2DqtfxDtOBc8M6uVLniOWMmsa/2fi06Y81cJnthNBM9dN7j1Xim3/F/Ug5MbwXNmBE/ssMMQPCvPcerg2fx/tfsVT/4dT+wigucBoH2rXb0lH9O+NUnwrNJurQ1c+X/18pi7WO1i8NRuGQ79p0/18gSBe7cd4OC5PM7Lz2/S4OnOyZXQefxNc9XdYt8z772g1AM7gOAJAACAWRA8AQAAMAuCJwAAAGZB8AQAAMAsXPAEAAAANo3gCQAAgFkQPAEAADALgicAAABmsX7wdP+g7U/N+eNK3aweMDfPnDV/OPOM+fmdWj0AAAD209rB8/n398ze+2fVunlNEzzfPbEY4wfHzTmlDgAAAKtbM3ieNe8dsP+6i+AJAACwCXeY/x/uoXgurv+otwAAAABJRU5ErkJggg==;" vertex="1" parent="1">
                    <mxGeometry x="-760" y="300" width="670" height="399" as="geometry"/>
                </mxCell>
            </root>
        </mxGraphModel>
    </diagram>
</mxfile>